<svg xmlns="http://www.w3.org/2000/svg" viewBox="0 0 512 512">
  <rect width="512" height="512" rx="80" fill="#1a1a2e"/>
  <g transform="translate(256,240)">
    <!-- Blood drop -->
    <path d="M0,-140 C-22,-96 -86,-10 -86,44 C-86,90 -48,128 0,128 C48,128 86,90 86,44 C86,-10 22,-96 0,-140Z" fill="#c62828"/>
    <path d="M0,-110 C-14,-78 -56,-14 -56,32 C-56,64 -30,90 0,90 C30,90 56,64 56,32 C56,-14 14,-78 0,-110Z" fill="#e53935"/>
    <!-- Cross -->
    <rect x="-10" y="-54" width="20" height="74" rx="4" fill="#fafafa" opacity="0.9"/>
    <rect x="-27" y="-32" width="54" height="20" rx="4" fill="#fafafa" opacity="0.9"/>
  </g>
  <!-- Title -->
  <text x="256" y="440" text-anchor="middle" font-family="sans-serif" font-weight="bold" font-size="48" fill="#e0e0e0">헌혈의 집</text>
  <text x="256" y="478" text-anchor="middle" font-family="sans-serif" font-size="28" fill="#888">Red Ledger</text>
</svg>
