<svg xmlns="http://www.w3.org/2000/svg" viewBox="0 0 192 192">
  <rect width="192" height="192" rx="32" fill="#1a1a2e"/>
  <g transform="translate(96,100)">
    <!-- Blood drop -->
    <path d="M0,-52 C-8,-36 -32,-4 -32,16 C-32,34 -18,48 0,48 C18,48 32,34 32,16 C32,-4 8,-36 0,-52Z" fill="#c62828"/>
    <path d="M0,-42 C-5,-30 -20,-6 -20,12 C-20,24 -11,34 0,34 C11,34 20,24 20,12 C20,-6 5,-30 0,-42Z" fill="#e53935"/>
    <!-- Cross -->
    <rect x="-4" y="-20" width="8" height="28" rx="2" fill="#fafafa" opacity="0.9"/>
    <rect x="-10" y="-12" width="20" height="8" rx="2" fill="#fafafa" opacity="0.9"/>
  </g>
  <!-- Title -->
  <text x="96" y="172" text-anchor="middle" font-family="sans-serif" font-weight="bold" font-size="18" fill="#e0e0e0">헌혈의 집</text>
</svg>
